<svg id="Layer_1" data-name="Layer 1" xmlns="http://www.w3.org/2000/svg" viewBox="0 0 1080 1080"><defs><style>.cls-1{fill:#474e9e;}.cls-2{fill:#fbfcfc;fill-rule:evenodd;}</style></defs><rect class="cls-1" width="1080" height="1080"/><path id="path0" class="cls-2" d="M658.71,302.28c-26.51,6.74-36,20.79-50.17,73.82a1854.06,1854.06,0,0,1-73.25,216.31c-4.81,11.46-5.19,11.64-7.59,3.77a1532.57,1532.57,0,0,1-39.36-156.11c-23-114.66-33.92-135.16-72.17-135.07-42.49,0-58.25,28.48-83.87,151.17-10.57,50.63-11.55,54.17-34.46,125.64-26.86,83.4-33.92,116.5-32.71,150.13,1.61,45.15,60.59,59.13,85.64,20.31,6.74-10.44,8.48-16.55,14.87-52.11a640.56,640.56,0,0,1,15.38-68c12.28-44.93,31.1-110.51,31.64-110s3.38,12.12,7,26.45C438.29,621,473.5,732.89,481.47,744.5,494.76,764,514.09,771.84,536,766.65c27.65-6.55,40.94-26.39,67.64-101.25,5.32-15,16.68-45,25.31-66.79s19.75-50.81,25-64.57c6.14-16.2,9.71-24.4,10.09-23.13s2.25,11,4.3,22c7.47,40.21,17.85,87.42,25.12,114.34,2.19,8.1,8.2,31.32,13.36,51.61,12.11,47.67,19,61.82,34.45,72.13,27.49,18.23,68,4,73.47-25.91,1.26-6.77-1.52-18.19-15.54-63.75-20-65-22.84-74.64-28.69-97.58-11.36-44.58-21.27-94.5-30.31-153-12.25-79.1-20.92-104.41-41.58-120.61a49.55,49.55,0,0,0-39.71-7.94"/></svg>