<svg id="Layer_1" data-name="Layer 1" xmlns="http://www.w3.org/2000/svg" viewBox="0 0 1080 1080"><defs><style>.cls-1{fill:#5257a6;}.cls-2{fill:#fff;}</style></defs><rect class="cls-1" width="1080" height="1080"/><path class="cls-2" d="M636.29,675.23l27,27a186.18,186.18,0,0,0,46.26-219.17l-29.2,29.2a147.88,147.88,0,0,1-44.05,163Z"/><path class="cls-2" d="M416.72,702.22l27-27a147.88,147.88,0,0,1-44-163l-29.2-29.2a186.18,186.18,0,0,0,46.26,219.17Z"/><path class="cls-2" d="M557.47,426.4,540,443.86l-165-165a328.31,328.31,0,0,0-74.65,59.86l.16.17h0l-.16-.17c-54.39,58.49-87.91,136.64-87.91,222.8,0,94.77,40.48,179.88,104.81,239.7L384.36,734c-3-2.67-5.93-5.33-8.75-8.15a232,232,0,0,1-8.05-319.93h0L472.74,511.12,540,578.38l84.72-84.72Z"/><path class="cls-2" d="M779.7,338.68h0a328.75,328.75,0,0,0-74.65-59.86L597.88,386l67.25,67.26,47.46-47.46h0l-.05,0A231.75,231.75,0,0,1,695.64,734l67.16,67.16c64.32-59.82,104.8-144.93,104.8-239.7C867.6,475.32,834.08,397.17,779.7,338.68Z"/></svg>